<?xml version="1.0" standalone="no"?>
<!DOCTYPE svg PUBLIC "-//W3C//DTD SVG 20010904//EN"
 "http://www.w3.org/TR/2001/REC-SVG-20010904/DTD/svg10.dtd">
<svg version="1.0" xmlns="http://www.w3.org/2000/svg"
 width="571.000000pt" height="571.000000pt" viewBox="0 0 571.000000 571.000000"
 preserveAspectRatio="xMidYMid meet">
<metadata>
Created by potrace 1.11, written by Peter Selinger 2001-2013
</metadata>
<g transform="translate(0.000000,571.000000) scale(0.100000,-0.100000)"
fill="#000000" stroke="none">
<path d="M2839 4973 c-11 -3 -15 -11 -12 -27 4 -20 1 -23 -21 -21 -14 2 -28
-1 -32 -6 -3 -5 -9 -7 -14 -4 -4 3 -19 1 -32 -4 -17 -7 -18 -10 -5 -10 9 -1
17 -7 17 -15 0 -8 -9 -12 -27 -10 -18 2 -34 -5 -49 -22 -21 -22 -37 -27 -86
-27 -10 0 -15 -3 -13 -7 3 -5 -1 -11 -7 -13 -10 -4 -10 -6 0 -6 29 -2 9 -17
-25 -19 -21 -2 -42 -8 -48 -13 -7 -7 -6 -9 2 -7 6 2 12 -1 13 -7 1 -12 -57
-25 -77 -18 -7 3 -14 0 -14 -6 -1 -6 -2 -17 -3 -23 0 -7 -23 -18 -51 -24 -45
-11 -47 -13 -16 -18 5 0 13 -5 18 -10 4 -5 3 -6 -4 -2 -6 3 -14 2 -18 -4 -3
-5 -12 -10 -18 -10 -7 0 -6 4 3 10 8 5 10 10 4 10 -5 0 -14 -4 -20 -10 -5 -5
-25 -11 -44 -13 -29 -3 -35 -7 -33 -24 2 -17 -2 -21 -17 -18 -19 4 -25 -6 -20
-30 1 -5 -2 -6 -7 -2 -8 9 -10 14 -12 48 0 11 -5 18 -9 15 -5 -3 -9 1 -9 9 0
8 4 12 8 9 5 -3 8 24 8 60 -1 60 -2 64 -21 61 -11 -3 -17 -1 -14 3 4 4 13 7
19 7 8 0 13 21 14 57 2 49 0 58 -17 63 -11 4 -20 11 -20 16 0 5 -52 9 -120 9
-73 0 -120 -4 -120 -10 0 -19 -2 -25 -11 -37 -6 -6 -6 -14 -1 -17 7 -4 9 -45
2 -53 -7 -9 -4 -29 5 -35 6 -5 5 -8 -4 -8 -11 0 -11 -3 -1 -15 8 -10 9 -15 2
-15 -6 0 -9 -7 -5 -16 5 -13 2 -15 -13 -10 -18 5 -19 -2 -20 -144 0 -82 4
-147 8 -144 5 3 6 9 3 14 -3 5 -2 11 3 14 4 2 7 59 7 125 -1 104 1 121 14 121
14 0 14 -1 1 -10 -13 -9 -13 -11 0 -20 9 -5 10 -10 3 -10 -9 0 -11 -26 -3 -37
1 -2 2 -12 2 -23 0 -11 -1 -21 -2 -22 -8 -12 -6 -38 3 -38 7 0 6 -4 -2 -9 -12
-8 -12 -12 -2 -24 9 -11 9 -17 0 -22 -8 -6 -7 -10 2 -16 10 -6 11 -9 2 -9 -14
0 -13 -21 1 -31 4 -4 3 -10 -3 -13 -6 -4 -11 -2 -11 5 0 8 -4 8 -15 -1 -8 -7
-15 -21 -15 -32 0 -15 -5 -19 -20 -15 -11 3 -20 2 -20 -3 0 -4 -8 -7 -17 -7
-41 0 -44 -2 -33 -23 10 -18 8 -20 -29 -20 -55 0 -70 -7 -63 -32 4 -18 1 -20
-27 -16 -27 4 -31 2 -29 -15 3 -22 -30 -37 -69 -31 -17 3 -22 -2 -25 -24 -2
-22 -7 -26 -25 -24 -13 2 -24 -2 -24 -7 -1 -6 -2 -16 -3 -23 0 -6 -7 -12 -14
-14 -7 -1 -8 0 -2 3 15 7 2 23 -15 17 -8 -4 -12 -10 -9 -15 3 -5 -11 -9 -30
-9 -22 0 -36 -5 -36 -12 0 -9 -4 -8 -11 2 -9 12 -10 12 -5 -3 3 -10 6 -21 6
-25 0 -3 7 3 15 14 11 13 14 14 13 4 -4 -22 -20 -30 -35 -18 -9 7 -13 7 -13
-1 0 -6 -12 -11 -26 -11 -21 0 -25 -4 -21 -20 4 -15 0 -20 -14 -21 -28 -2 -33
-3 -48 -13 -10 -6 -12 -5 -7 2 4 7 2 12 -3 12 -6 0 -12 -4 -12 -10 -1 -5 -2
-15 -3 -22 -1 -11 -15 -15 -63 -20 -12 -1 -19 -7 -16 -12 4 -5 -1 -7 -10 -3
-12 4 -15 1 -12 -14 3 -14 -1 -20 -13 -18 -32 3 -39 -1 -38 -21 0 -11 -3 -18
-9 -17 -5 1 -10 7 -10 12 -1 16 -20 11 -20 -5 0 -10 -9 -15 -26 -15 -20 1 -26
-4 -25 -20 1 -17 -6 -21 -43 -25 -28 -3 -46 -11 -48 -20 -4 -13 -3 -13 6 0 8
12 10 11 9 -6 -2 -16 -8 -20 -30 -19 -15 1 -33 -2 -40 -6 -7 -4 -18 -3 -24 2
-8 6 -14 5 -18 -6 -4 -12 0 -14 19 -11 28 5 41 -7 22 -22 -14 -12 -15 -12 -63
-12 -28 0 -35 -3 -30 -15 7 -19 -12 -26 -86 -34 -5 -1 -8 -10 -8 -21 0 -20
-22 -26 -74 -21 -15 1 -17 -4 -13 -25 4 -23 2 -25 -19 -21 -14 2 -27 0 -30 -5
-3 -4 -10 -6 -15 -3 -5 4 -9 0 -9 -7 0 -9 -3 -9 -10 2 -8 13 -10 12 -10 -3 0
-14 5 -17 20 -12 11 4 20 2 20 -4 0 -6 -12 -11 -27 -12 -39 -1 -68 -14 -68
-30 0 -8 -10 -14 -23 -13 -12 0 -22 -3 -22 -7 0 -4 -12 -6 -27 -3 -24 5 -25 3
-12 -12 9 -12 10 -15 2 -10 -7 4 -13 3 -13 -3 0 -5 -14 -16 -30 -25 -17 -8
-28 -11 -25 -7 2 5 -8 8 -23 8 -15 0 -21 -2 -14 -4 6 -3 9 -10 6 -15 -4 -6 -3
-8 2 -5 6 3 16 2 24 -3 12 -7 11 -9 -5 -9 -19 0 -46 -4 -90 -15 -11 -2 -24 -5
-28 -5 -5 -1 -5 -6 -1 -12 4 -8 9 -7 15 2 7 11 9 11 9 -1 0 -13 1 -13 10 0 6
9 10 10 10 3 0 -17 -11 -22 -53 -25 -28 -1 -36 -7 -40 -25 -4 -20 0 -23 27
-24 138 -4 1056 -3 1076 2 16 3 26 13 28 28 3 18 9 22 30 19 20 -2 26 1 24 12
-3 12 -1 12 9 3 13 -13 42 -6 33 9 -4 7 -9 7 -13 0 -4 -6 -11 -5 -18 3 -10 11
-9 14 5 14 50 -1 77 9 77 27 0 15 9 20 42 22 36 3 44 7 49 28 5 20 13 24 43
25 20 1 40 1 44 0 4 -1 7 4 6 11 -3 27 2 34 24 35 35 1 62 8 65 16 5 16 1 19
-12 8 -10 -8 -16 -9 -21 -1 -3 5 -5 10 -3 11 20 5 50 9 81 11 33 3 35 4 20 16
-16 11 -16 14 -3 22 22 14 30 12 24 -5 -4 -8 -1 -15 5 -15 6 0 10 6 9 12 -2 7
8 14 21 16 13 2 26 12 28 23 3 10 9 20 14 20 20 3 50 7 64 8 8 0 14 4 14 9 -4
23 4 32 26 32 23 0 29 9 26 37 -1 6 6 12 16 12 42 0 94 9 101 16 4 5 -1 5 -10
2 -12 -4 -16 -1 -15 12 0 10 10 18 25 19 14 1 32 8 40 15 13 9 14 9 8 0 -4 -8
-2 -13 7 -13 9 0 14 9 13 22 -1 17 5 22 24 23 34 1 70 14 70 26 0 12 -13 12
-26 -1 -7 -7 -11 -7 -11 3 0 7 12 14 26 15 14 1 35 4 46 6 11 3 27 5 36 5 9 1
20 8 23 17 4 10 2 13 -7 7 -18 -11 -37 -12 -37 -2 0 5 3 9 8 10 4 0 16 3 27 5
11 3 29 6 40 7 14 1 19 8 17 23 -2 18 3 20 43 19 43 -1 49 4 46 33 -1 7 10 13
26 13 15 1 35 3 43 4 8 1 20 3 27 4 7 0 10 8 7 16 -4 8 -11 12 -18 8 -7 -4 -8
-2 -1 5 6 6 26 12 46 13 22 2 41 10 48 21 7 11 7 18 1 18 -5 0 -10 -4 -10 -10
0 -5 -4 -10 -8 -10 -5 0 -9 6 -9 14 0 7 10 13 21 13 70 1 75 3 71 23 -2 11 0
21 6 21 5 1 14 3 19 4 6 1 24 3 41 4 26 1 29 4 24 21 -6 19 6 25 42 21 6 -1
14 3 18 9 5 8 10 8 20 0 9 -8 14 -7 18 3 3 8 -3 13 -17 13 -11 -1 -21 3 -21 9
0 5 19 10 43 11 34 2 42 -1 40 -15 -2 -10 3 -15 15 -13 9 2 17 -3 17 -9 0 -7
3 -9 7 -6 3 4 -2 16 -11 26 -17 19 -17 19 1 17 10 -2 19 -8 19 -14 1 -7 2 -17
3 -23 0 -5 11 -9 24 -7 18 2 21 -1 19 -19 -3 -20 1 -23 33 -23 50 0 80 -17 64
-36 -6 -8 -10 -14 -8 -15 2 0 22 -2 44 -3 52 -4 52 -4 52 -20 0 -8 -6 -12 -14
-9 -7 3 -11 8 -8 12 2 4 -2 8 -10 8 -10 0 -12 -4 -5 -12 5 -7 8 -14 6 -16 -2
-2 14 -5 37 -7 42 -3 59 -15 50 -38 -3 -8 9 -11 41 -10 45 2 52 -4 47 -36 -1
-7 24 -12 57 -11 15 1 15 -10 0 -25 -9 -9 -9 -12 -1 -12 7 0 15 9 18 20 8 25
25 17 20 -10 -3 -16 2 -20 26 -20 16 0 29 -4 29 -10 0 -5 5 -10 11 -10 5 0 7
5 3 11 -4 8 0 8 15 0 11 -7 21 -14 21 -17 0 -3 -4 -2 -10 1 -5 3 -17 2 -26 -3
-11 -6 -13 -11 -5 -16 6 -4 11 -2 11 5 0 9 3 9 14 0 8 -6 18 -11 22 -10 28 5
42 -2 37 -20 -3 -10 1 -22 8 -27 9 -5 11 -2 6 10 -6 14 -4 15 16 4 24 -13 29
-15 53 -17 11 -1 13 -7 8 -23 -6 -21 -5 -22 11 -8 11 9 16 10 11 3 -5 -9 0
-13 14 -13 14 0 19 -4 14 -12 -5 -9 -2 -9 9 1 12 9 17 10 17 2 0 -7 4 -10 9
-7 5 3 8 -2 7 -11 -1 -12 7 -18 24 -18 14 0 25 -4 25 -10 1 -14 19 -43 28 -44
4 -1 22 -1 41 -1 29 0 33 -3 29 -22 -4 -19 0 -23 20 -23 14 0 23 5 20 10 -3 6
5 -1 16 -15 12 -14 20 -20 19 -15 -2 6 2 11 7 13 13 3 14 -21 0 -30 -8 -6 42
-12 92 -11 6 0 9 -9 7 -23 -4 -22 -1 -24 31 -24 21 0 35 -5 35 -12 0 -10 3 -9
9 1 5 8 11 9 15 3 3 -6 -6 -15 -21 -20 l-28 -10 33 -2 c17 -2 42 -3 55 -4 16
-1 22 -7 21 -24 -1 -18 4 -22 25 -22 15 0 33 -6 40 -12 11 -10 13 -10 7 0 -4
6 -3 12 2 12 12 0 24 -29 17 -41 -3 -4 9 -9 27 -9 59 0 65 -3 64 -24 -1 -16 6
-22 29 -24 17 -1 37 -3 46 -4 9 -1 16 -8 16 -15 0 -16 -9 -16 -26 0 -9 8 -12
8 -7 0 3 -6 0 -14 -6 -16 -12 -5 28 -10 75 -10 9 0 17 -6 17 -14 0 -8 -5 -11
-11 -8 -6 4 -5 -2 3 -14 7 -12 16 -17 22 -11 4 4 18 5 30 2 16 -6 961 -8 1072
-3 15 1 20 7 19 23 -1 13 -8 23 -16 24 -8 0 -18 2 -24 4 -5 1 -19 3 -29 4 -11
0 -21 8 -23 16 -3 11 -2 12 4 3 7 -10 13 -10 26 0 16 11 15 12 -5 13 -13 0
-39 4 -58 9 -19 4 -41 8 -47 8 -17 0 -16 2 4 18 11 10 14 10 9 2 -4 -9 -1 -13
10 -13 14 0 14 3 4 15 -7 8 -18 15 -24 14 -6 -1 -25 -1 -43 0 -27 1 -31 4 -28
27 2 21 -1 25 -17 21 -30 -8 -47 2 -43 25 3 11 1 17 -3 14 -4 -4 -7 -13 -7
-19 0 -5 -6 -12 -13 -15 -7 -2 -12 0 -11 5 5 30 -3 40 -36 41 -44 2 -58 10
-51 28 5 14 -4 18 -36 15 -17 -2 -22 8 -19 34 0 6 -9 11 -21 12 -16 2 -18 -1
-9 -10 14 -14 14 -27 -1 -27 -6 0 -8 3 -5 7 12 11 -15 33 -40 33 -22 0 -24 2
-13 15 9 11 9 15 1 15 -7 0 -9 5 -5 11 4 8 0 8 -15 0 -14 -8 -21 -8 -21 -1 0
5 -13 10 -28 10 -35 0 -45 9 -31 27 9 10 7 13 -7 14 -11 1 -25 1 -31 0 -13 -2
-17 11 -13 38 1 8 -4 12 -13 8 -8 -3 -18 -3 -22 1 -3 4 -12 7 -18 8 -7 0 -20
2 -30 2 -10 1 -15 7 -12 12 3 6 -1 10 -9 10 -9 0 -16 5 -16 10 0 6 -13 10 -28
10 -36 0 -46 10 -26 25 13 9 13 12 3 13 -45 2 -82 19 -74 32 8 13 -14 23 -46
22 -20 0 -29 5 -33 22 -4 18 -13 22 -45 23 -22 0 -50 8 -62 17 -13 9 -19 16
-13 16 5 0 16 -6 23 -12 11 -11 11 -9 2 10 -7 12 -16 20 -21 17 -5 -3 -19 -1
-30 5 -13 7 -20 7 -20 1 0 -6 -7 -8 -16 -4 -13 5 -13 7 -2 14 10 7 11 9 0 9
-7 0 -11 4 -8 9 8 12 -11 17 -55 17 -22 -1 -36 4 -36 12 0 6 5 12 11 11 25 -3
37 2 30 12 -4 8 -9 7 -15 -2 -6 -10 -9 -11 -9 -2 0 7 -3 12 -7 12 -5 -1 -21
-1 -37 0 -23 1 -27 5 -23 21 3 11 2 20 -1 21 -7 1 -56 6 -85 8 -15 1 -16 5 -7
21 7 14 7 20 0 21 -5 1 -14 3 -20 4 -5 1 -23 3 -38 4 -20 1 -32 8 -40 25 -8
19 -17 23 -41 20 -17 -2 -31 1 -31 7 0 6 -4 8 -9 5 -4 -3 -8 4 -7 16 1 19 -4
22 -31 22 -29 -1 -31 1 -22 22 5 15 5 24 -1 24 -6 0 -10 -6 -10 -14 0 -20 -17
-29 -26 -15 -4 8 -3 9 4 5 7 -4 12 -1 12 8 0 9 -3 15 -7 15 -5 -1 -20 -1 -35
0 -22 1 -28 6 -28 25 0 19 -4 22 -24 19 -23 -5 -42 19 -31 37 3 5 -6 7 -20 4
-14 -2 -25 -1 -25 4 0 4 -15 7 -34 7 -24 -1 -33 2 -29 12 3 7 10 13 16 13 6 0
7 3 3 7 -4 4 -26 8 -49 9 -24 0 -43 6 -43 12 -5 41 -6 46 -10 35 -4 -8 -13 -9
-33 -2 -16 6 -34 9 -42 7 -9 -2 -13 5 -11 22 2 20 -2 25 -20 26 -59 4 -68 8
-68 30 0 19 -4 22 -25 18 -14 -2 -26 0 -26 6 -1 5 -2 16 -3 23 -1 13 -5 14
-61 16 -29 1 -35 5 -35 24 0 18 -6 23 -27 24 -58 1 -63 3 -63 23 0 15 -7 20
-27 22 -49 2 -52 3 -65 16 -8 8 -8 12 -1 12 6 0 13 -5 15 -11 2 -7 8 -6 16 4
10 12 10 17 1 23 -8 5 -9 3 -4 -6 6 -10 4 -11 -11 -5 -10 4 -31 10 -46 12 -22
4 -26 9 -23 32 2 14 2 20 -1 14 -3 -7 -10 -13 -15 -13 -6 0 -8 4 -5 8 3 5 -1
9 -9 9 -8 0 -11 -5 -8 -11 4 -6 -3 -3 -14 7 -12 10 -23 14 -24 8 -2 -5 -13 -3
-24 6 -13 10 -14 14 -4 10 9 -3 16 1 16 9 0 8 -9 14 -19 14 -11 0 -29 5 -40
11 -13 7 -18 7 -14 1 4 -6 -2 -10 -13 -9 -19 1 -22 12 -8 33 7 13 -18 22 -44
17z m-812 -78 c0 -8 -4 -12 -9 -9 -5 3 -6 10 -3 15 9 13 12 11 12 -6z m60 0
c0 -8 -4 -12 -9 -9 -5 3 -6 10 -3 15 9 13 12 11 12 -6z m48 -13 c-3 -3 -11 0
-18 7 -9 10 -8 11 6 5 10 -3 15 -9 12 -12z m15 -32 c0 -5 -5 -10 -11 -10 -5 0
-7 5 -4 10 3 6 8 10 11 10 2 0 4 -4 4 -10z m900 -4 c0 -2 -7 -7 -16 -10 -8 -3
-12 -2 -9 4 6 10 25 14 25 6z m-455 -36 c3 -5 -1 -10 -10 -10 -9 0 -13 5 -10
10 3 6 8 10 10 10 2 0 7 -4 10 -10z m792 -152 c2 -21 -5 -22 -27 -7 -12 9 -11
10 5 5 19 -6 19 -6 1 8 -18 15 -18 15 1 13 11 0 20 -9 20 -19z m-1137 -39 c0
-5 4 -7 10 -4 6 3 7 -1 4 -10 -5 -12 -9 -13 -20 -4 -16 13 -18 29 -4 29 6 0
10 -5 10 -11z m1370 -105 c0 -8 -19 -13 -24 -6 -3 5 1 9 9 9 8 0 15 -2 15 -3z
m78 -44 c-7 -11 -15 -15 -17 -9 -2 6 3 15 10 20 20 12 21 11 7 -11z m97 -40
c-3 -5 -1 -10 5 -10 6 0 8 -5 4 -11 -4 -7 -10 -7 -16 -1 -9 9 -3 32 8 32 3 0
2 -4 -1 -10z m-2005 -100 c0 -5 -5 -10 -11 -10 -5 0 -7 5 -4 10 3 6 8 10 11
10 2 0 4 -4 4 -10z m-93 -45 c0 -6 -6 -12 -12 -12 -6 0 -12 6 -12 12 0 6 6 12
12 12 6 0 12 -6 12 -12z m1318 -35 c3 -6 -1 -7 -9 -4 -18 7 -21 14 -7 14 6 0
13 -4 16 -10z m1262 -112 c0 -13 -1 -17 -4 -10 -3 6 -10 9 -16 5 -7 -4 -6 1 2
10 17 21 17 21 18 -5z m-1816 -41 c-10 -9 -11 -8 -5 6 3 10 9 15 12 12 3 -3 0
-11 -7 -18z m789 -7 c0 -3 -6 -7 -13 -7 -7 0 -13 8 -13 18 0 13 3 15 13 7 7
-6 13 -14 13 -18z m-2125 -137 c-2 -10 -4 -19 -4 -21 -1 -2 -6 0 -11 3 -8 5
-7 11 1 21 15 18 18 18 14 -3z m3490 -3 c0 -7 -7 -14 -15 -15 -9 -2 -16 5 -16
15 0 10 7 17 16 15 8 -1 15 -8 15 -15z m82 -45 c0 -8 -6 -15 -12 -15 -6 0 -12
7 -12 15 0 8 6 15 12 15 6 0 12 -7 12 -15z m-877 -125 c11 -7 11 -10 2 -10 -7
0 -10 -5 -6 -11 4 -8 0 -7 -15 1 -12 6 -19 15 -16 21 8 11 16 11 35 -1z m1116
-17 c-3 -18 -20 -18 -24 0 -2 7 4 14 11 14 8 0 14 -6 13 -14z m-3118 -43 c-7
-10 -14 -18 -15 -16 -6 6 9 36 18 36 5 0 4 -9 -3 -20z m2092 11 c0 -5 -7 -12
-16 -15 -14 -5 -15 -4 -4 9 14 17 20 19 20 6z m-3360 -106 c11 -13 10 -14 -4
-9 -9 3 -16 10 -16 15 0 13 6 11 20 -6z m620 -269 c0 -2 -7 -7 -16 -10 -8 -3
-12 -2 -9 4 6 10 25 14 25 6z m3400 -2 c0 -8 -19 -13 -24 -6 -3 5 1 9 9 9 8 0
15 -2 15 -3z"/>
<path d="M2787 4957 c-3 -7 3 -13 14 -13 13 0 15 3 7 13 -6 7 -12 13 -13 13
-2 0 -5 -6 -8 -13z"/>
<path d="M2910 4960 c-9 -6 -10 -10 -3 -10 6 0 15 5 18 10 8 12 4 12 -15 0z"/>
<path d="M1865 4910 c-3 -5 -1 -10 4 -10 6 0 11 5 11 10 0 6 -2 10 -4 10 -3 0
-8 -4 -11 -10z"/>
<path d="M2145 4910 c3 -5 10 -10 16 -10 5 0 9 5 9 10 0 6 -7 10 -16 10 -8 0
-12 -4 -9 -10z"/>
<path d="M1845 4826 c0 -39 4 -76 8 -83 4 -6 2 -13 -5 -15 -8 -3 -7 -6 4 -10
13 -5 15 1 13 38 -1 25 1 47 5 49 9 5 6 37 -4 53 -4 6 -5 16 -2 21 3 5 0 11
-7 14 -9 3 -12 -14 -12 -67z m20 3 c1 -11 -1 -22 -5 -24 -3 -2 -6 9 -6 25 0
33 9 32 11 -1z"/>
<path d="M2645 4871 c-3 -5 -1 -12 5 -16 5 -3 10 1 10 9 0 18 -6 21 -15 7z"/>
<path d="M3475 4631 c-3 -5 -2 -12 3 -15 5 -3 9 1 9 9 0 17 -3 19 -12 6z"/>
<path d="M4026 4302 c-3 -6 1 -15 8 -21 8 -7 17 -8 20 -3 3 6 -1 15 -8 21 -8
7 -17 8 -20 3z"/>
<path d="M1574 4262 c3 -5 0 -13 -6 -15 -9 -4 -10 -6 -1 -6 17 -1 25 16 12 25
-7 4 -9 3 -5 -4z"/>
<path d="M4115 4250 c3 -5 8 -10 11 -10 2 0 4 5 4 10 0 6 -5 10 -11 10 -5 0
-7 -4 -4 -10z"/>
<path d="M1476 4192 c-3 -5 1 -9 9 -9 8 0 12 4 9 9 -3 4 -7 8 -9 8 -2 0 -6 -4
-9 -8z"/>
<path d="M1426 4162 c-3 -5 1 -9 9 -9 8 0 15 4 15 9 0 4 -4 8 -9 8 -6 0 -12
-4 -15 -8z"/>
<path d="M2330 4006 c0 -2 8 -10 18 -17 15 -13 16 -12 3 4 -13 16 -21 21 -21
13z"/>
<path d="M1905 3761 c3 -22 22 -25 27 -4 3 13 0 19 -12 19 -10 0 -17 -7 -15
-15z"/>
<path d="M758 3758 c-9 -5 -6 -7 9 -5 12 2 25 6 28 8 8 9 -23 6 -37 -3z"/>
<path d="M667 3723 c3 -7 9 -10 14 -7 14 8 11 21 -5 21 -8 0 -12 -6 -9 -14z"/>
<path d="M5026 3732 c-3 -5 1 -9 9 -9 8 0 12 4 9 9 -3 4 -7 8 -9 8 -2 0 -6 -4
-9 -8z"/>
<path d="M1770 3671 c0 -6 4 -13 10 -16 6 -3 7 1 4 9 -7 18 -14 21 -14 7z"/>
<path d="M4016 3632 c-2 -4 -1 -14 4 -22 7 -11 9 -9 7 8 -1 24 -3 26 -11 14z"/>
<path d="M5257 3587 c-3 -8 1 -14 9 -14 16 0 19 13 5 21 -5 3 -11 0 -14 -7z"/>
<path d="M1341 3428 c9 -16 29 -17 29 -2 0 3 -4 2 -10 -1 -5 -3 -10 -2 -10 4
0 5 6 11 13 14 6 3 2 4 -10 4 -18 -1 -20 -4 -12 -19z"/>
<path d="M4346 3441 c-3 -5 2 -15 12 -22 16 -13 16 -13 2 5 -14 18 -13 19 3
13 11 -4 16 -3 12 3 -8 12 -22 13 -29 1z"/>
<path d="M2972 3065 c-1 -12 2 -15 6 -8 5 9 12 6 21 -10 9 -15 10 -18 1 -10
-30 28 -35 3 -34 -165 0 -92 4 -173 8 -180 4 -7 4 -12 -1 -12 -10 0 -9 -211 1
-228 4 -7 4 -12 -1 -12 -10 0 -9 -132 1 -148 4 -7 4 -12 -1 -12 -10 0 -9 -193
2 -210 5 -7 4 -11 -1 -8 -11 7 -11 -152 0 -170 4 -6 4 -12 -1 -12 -10 0 -9
-273 2 -290 5 -7 4 -11 -1 -7 -11 6 -11 -73 0 -91 4 -7 4 -12 -1 -12 -10 0 -9
-132 1 -148 4 -7 4 -12 -1 -12 -4 0 -8 -49 -8 -110 l0 -110 773 0 c611 0 772
3 772 13 0 9 2 9 8 -1 10 -14 132 -15 132 -1 0 5 -3 8 -7 8 -18 -3 -33 2 -33
10 0 5 8 8 18 6 9 -1 22 0 27 4 6 3 39 6 75 6 36 0 71 4 78 8 7 5 12 3 12 -5
0 -9 3 -10 8 -2 4 6 15 10 24 9 9 -2 19 3 21 10 4 8 -3 11 -20 9 -14 -1 -22 1
-18 4 4 4 19 8 33 8 15 1 28 3 30 4 1 1 12 3 25 4 15 1 22 7 22 21 0 13 7 20
20 20 14 0 21 8 23 28 2 15 7 27 11 27 5 0 8 9 7 20 -1 24 16 31 20 7 1 -10
-2 -15 -9 -11 -8 5 -7 2 1 -7 9 -10 15 -10 24 -1 7 7 8 12 2 12 -14 0 -5 93
10 102 8 6 7 8 -1 8 -7 0 -13 5 -13 10 0 6 12 8 26 6 21 -4 23 -2 14 9 -8 9
-8 15 0 20 8 5 8 11 -1 21 -8 10 -8 14 0 14 13 0 10 22 -4 32 -16 12 -28 9
-18 -4 13 -17 12 -48 -1 -48 -7 0 -7 -3 -1 -8 6 -4 11 -14 13 -22 3 -11 0 -12
-8 -4 -14 14 -21 54 -9 54 6 0 7 5 3 11 -11 18 -12 69 -2 69 6 0 6 6 -1 14
-10 11 -9 14 3 12 9 -1 19 -6 23 -11 4 -4 3 -5 -4 -1 -8 4 -11 0 -8 -14 2 -11
-2 -20 -8 -20 -7 0 -7 -4 3 -9 8 -6 17 -8 20 -6 9 5 6 88 -3 103 -5 7 -4 12 2
12 13 0 10 22 -4 32 -16 12 -28 9 -18 -4 13 -17 13 -48 -1 -48 -5 0 -1 -7 10
-16 18 -15 18 -15 0 -6 -20 10 -31 42 -15 42 6 0 7 5 3 11 -10 17 -13 69 -3
69 5 0 9 5 9 11 0 5 -3 8 -7 6 -5 -3 -9 36 -11 86 -3 111 -3 117 -13 112 -15
-10 -37 7 -32 24 3 11 -5 20 -24 28 l-28 12 30 -5 c17 -2 24 -1 17 2 -6 3 -9
11 -5 16 4 7 -2 9 -15 6 -12 -4 -23 -2 -23 3 -1 5 -2 13 -3 18 0 5 -4 13 -8
17 -4 3 -6 -2 -4 -13 3 -13 -2 -19 -15 -19 -14 0 -17 6 -13 22 5 20 2 22 -31
22 -21 0 -41 5 -45 12 -5 8 -9 8 -11 2 -3 -7 -12 -5 -24 5 -16 13 -17 15 -2
10 22 -8 23 9 0 17 -9 4 -20 1 -25 -6 -6 -10 -8 -10 -8 0 0 8 -16 12 -49 12
-44 0 -48 2 -48 24 0 20 4 23 31 21 17 -2 38 1 47 6 9 4 20 4 25 0 5 -5 18 -5
29 -1 17 7 17 9 3 9 -10 1 -18 6 -18 12 0 5 -4 8 -9 4 -5 -3 -12 -2 -15 3 -5
8 1 9 91 14 29 1 52 7 52 13 -3 27 3 35 26 35 20 0 25 5 25 25 0 18 5 25 20
25 23 0 22 -11 24 214 1 117 -2 163 -12 172 -10 10 -9 15 5 24 14 9 14 10 2 7
-26 -8 -38 6 -41 47 -2 38 -11 50 -38 51 -8 0 -15 9 -15 19 0 20 -41 38 -73
31 -12 -2 -18 3 -18 15 0 10 4 16 8 14 4 -3 8 0 8 5 0 6 -11 12 -25 12 -14 1
-29 3 -35 4 -5 1 -13 3 -17 4 -4 0 2 8 13 17 10 8 13 13 7 9 -7 -3 -13 -2 -13
2 0 5 -10 10 -22 11 -60 4 -73 8 -72 23 1 9 -5 16 -12 16 -9 0 -10 -5 -3 -19
6 -12 6 -18 -1 -18 -5 0 -10 5 -10 11 0 5 -5 7 -11 3 -8 -4 -9 0 -4 15 8 25
-12 25 -33 1 -9 -11 -12 -12 -10 -1 2 7 -7 15 -20 17 -17 3 -21 0 -16 -8 6
-10 4 -10 -8 0 -12 9 -58 14 -157 15 -113 1 -138 4 -129 14 6 8 8 17 4 20 -4
4 -11 1 -16 -6 -6 -11 -9 -10 -14 5 -3 11 -4 8 -2 -8 2 -18 -1 -25 -10 -21 -7
2 -10 11 -7 19 4 11 -6 14 -43 14 -1262 6 -1180 7 -1182 -15z m155 -10 c0 -8
-4 -12 -9 -9 -5 3 -6 10 -3 15 9 13 12 11 12 -6z m338 6 c3 -5 2 -12 -3 -15
-5 -3 -9 1 -9 9 0 17 3 19 12 6z m142 -6 c0 -8 -4 -12 -9 -9 -5 3 -6 10 -3 15
9 13 12 11 12 -6z m338 6 c3 -5 2 -12 -3 -15 -5 -3 -9 1 -9 9 0 17 3 19 12 6z
m142 -6 c0 -8 -4 -12 -9 -9 -5 3 -6 10 -3 15 9 13 12 11 12 -6z m-1077 -59 c0
-2 -7 -7 -16 -10 -8 -3 -12 -2 -9 4 6 10 25 14 25 6z m1720 -26 c0 -5 -5 -10
-11 -10 -5 0 -7 5 -4 10 3 6 8 10 11 10 2 0 4 -4 4 -10z m145 -111 c-4 -5 -12
-9 -18 -8 -9 0 -8 2 1 6 6 2 9 10 6 15 -4 7 -2 8 5 4 6 -4 9 -12 6 -17z
m-1865 -25 c0 -8 -19 -13 -24 -6 -3 5 1 9 9 9 8 0 15 -2 15 -3z m1926 -18 c2
-12 -4 -13 -35 -7 -2 1 2 8 9 16 14 16 23 13 26 -9z m-1027 -70 c-15 -13 -49
-25 -49 -17 0 5 8 12 18 14 24 6 36 8 31 3z m55 -8 c4 4 7 3 6 -3 -7 -31 0
-38 21 -19 13 12 19 14 17 5 -2 -10 10 -15 42 -16 61 -3 59 -2 53 -25 -4 -16
0 -20 21 -20 23 0 25 -3 22 -30 -3 -26 -1 -29 19 -26 14 3 22 -1 22 -10 0 -9
-4 -11 -10 -5 -11 11 -39 3 -31 -10 3 -5 10 -7 15 -4 5 4 9 1 9 -5 0 -6 5 -8
13 -4 8 5 8 2 -2 -9 -9 -11 -9 -17 -2 -17 12 0 10 -27 -2 -47 -5 -8 -4 -13 2
-13 6 0 11 -5 11 -11 0 -8 -4 -9 -13 0 -8 6 -13 27 -12 51 1 22 -2 40 -6 40
-4 0 -7 -20 -5 -45 1 -25 0 -48 -3 -49 -3 -2 -6 -34 -6 -70 1 -73 9 -67 -87
-70 -27 0 -48 -4 -48 -8 0 -5 -5 -8 -11 -8 -5 0 -8 4 -5 8 3 5 -20 8 -50 7
-29 -1 -54 2 -54 6 0 5 -5 9 -11 9 -17 0 0 -19 33 -36 16 -9 28 -12 25 -7 -3
4 8 8 23 8 16 1 26 -3 23 -9 -3 -5 -1 -6 6 -2 20 13 59 17 66 7 3 -5 0 -13 -6
-17 -8 -4 -9 -3 -5 4 4 7 2 12 -3 12 -6 0 -11 -4 -11 -8 0 -5 -13 -9 -30 -9
-16 0 -30 4 -30 9 0 5 -6 6 -12 1 -17 -10 -58 -11 -52 -1 8 13 -10 9 -26 -4
-12 -11 -12 -10 -2 3 9 12 9 18 -1 28 -15 15 -17 171 -2 171 6 0 6 3 -1 8 -12
8 -15 214 -2 206 4 -3 20 6 35 20 18 17 31 22 38 16 7 -6 15 -6 19 -2z m1003
-5 c-4 -3 -2 -11 3 -18 7 -8 6 -12 -3 -12 -7 0 -14 9 -14 19 -1 10 3 18 9 18
6 0 8 -3 5 -7z m-1957 -219 c0 -8 -19 -13 -24 -6 -3 5 1 9 9 9 8 0 15 -2 15
-3z m-9 -111 c13 -16 12 -17 -3 -4 -17 13 -22 21 -14 21 2 0 10 -8 17 -17z
m1976 -59 c-3 -3 -12 -4 -19 -1 -8 3 -5 6 6 6 11 1 17 -2 13 -5z m-1976 -126
c-11 -11 -13 -10 -7 0 4 7 2 21 -5 30 -12 15 -11 15 6 0 16 -15 17 -20 6 -30z
m1648 -64 c-6 -7 -15 -11 -21 -8 -5 3 -4 12 3 20 6 7 15 11 21 8 5 -3 4 -12
-3 -20z m-619 -164 c3 -1 8 -2 13 -1 4 0 7 -4 7 -10 0 -8 4 -8 15 1 15 13 35
6 35 -13 0 -8 -4 -7 -9 2 -8 12 -12 12 -25 2 -9 -7 -21 -9 -28 -5 -22 14 -46
14 -51 1 -3 -8 13 -13 57 -14 100 -4 99 -3 103 -59 2 -27 9 -53 15 -59 7 -7 9
-6 5 1 -4 7 -1 16 6 22 9 8 12 -21 12 -136 0 -110 -3 -147 -12 -148 -7 -1 -17
-2 -21 -3 -5 0 -8 -11 -7 -23 1 -13 -2 -29 -8 -35 -6 -9 -5 -13 4 -13 9 0 10
-3 3 -10 -5 -5 -29 -11 -52 -12 -33 -1 -42 -5 -42 -19 0 -23 -11 -25 -105 -24
l-80 0 0 128 c0 79 3 127 10 127 7 0 7 3 0 8 -6 4 -11 32 -13 62 -2 40 0 51 7
40 15 -21 13 -4 -1 20 -10 16 -10 24 0 41 8 12 9 18 3 14 -6 -3 -11 -1 -11 4
0 6 6 11 13 11 9 0 9 2 0 8 -6 4 -11 26 -10 48 2 31 6 40 16 36 8 -3 12 -1 9
4 -5 7 125 11 142 4z m-1020 -276 c0 -8 -19 -13 -24 -6 -3 5 1 9 9 9 8 0 15
-2 15 -3z m-9 -271 c13 -16 12 -17 -3 -4 -17 13 -22 21 -14 21 2 0 10 -8 17
-17z m0 -185 c-11 -11 -13 -10 -7 0 4 7 2 21 -5 30 -12 15 -11 15 6 0 16 -15
17 -20 6 -30z m9 -110 c0 -4 -4 -8 -9 -8 -6 0 -12 4 -15 8 -3 5 1 9 9 9 8 0
15 -4 15 -9z"/>
<path d="M3920 2724 c-7 -8 -10 -17 -6 -21 3 -3 6 -1 6 6 0 9 5 9 20 1 23 -12
26 -5 6 15 -12 12 -16 12 -26 -1z"/>
<path d="M3871 2557 c2 -1 13 -9 24 -17 19 -14 19 -14 6 3 -7 9 -18 17 -24 17
-6 0 -8 -1 -6 -3z"/>
<path d="M3970 1981 c0 -7 -4 -9 -10 -6 -5 3 -10 1 -10 -4 0 -6 4 -11 9 -11
13 0 25 20 17 27 -3 4 -6 1 -6 -6z"/>
<path d="M3882 1971 c-11 -7 -11 -9 1 -14 16 -6 27 0 27 15 0 10 -11 10 -28
-1z"/>
<path d="M3870 1926 c0 -2 7 -9 15 -16 9 -7 15 -8 15 -2 0 5 -7 12 -15 16 -8
3 -15 4 -15 2z"/>
<path d="M3870 1835 c0 -7 30 -13 34 -7 3 4 -4 9 -15 9 -10 1 -19 0 -19 -2z"/>
<path d="M4149 1810 c3 -8 6 -44 5 -80 -1 -36 4 -71 10 -79 9 -12 8 -13 -6 -8
-22 8 -23 3 -2 -17 8 -9 11 -16 5 -16 -6 0 -11 -8 -10 -17 0 -13 2 -14 6 -4 3
8 8 9 12 3 3 -6 6 44 6 112 0 107 -2 122 -17 122 -11 0 -14 -5 -9 -16z"/>
<path d="M3871 1757 c2 -1 13 -9 24 -17 19 -14 19 -14 6 3 -7 9 -18 17 -24 17
-6 0 -8 -1 -6 -3z"/>
<path d="M3875 1510 c3 -5 8 -10 11 -10 2 0 4 5 4 10 0 6 -5 10 -11 10 -5 0
-7 -4 -4 -10z"/>
<path d="M3886 1475 c5 -11 4 -16 -3 -12 -5 3 -10 0 -10 -7 0 -7 6 -13 13 -13
7 0 11 4 8 9 -3 5 9 6 27 3 19 -3 31 -3 27 0 -3 4 -13 7 -21 9 -8 1 -22 8 -31
15 -14 12 -16 11 -10 -4z"/>
<path d="M3962 1464 c2 -13 13 -19 36 -20 34 -1 48 9 37 27 -5 6 -12 4 -20 -8
-7 -10 -17 -15 -21 -10 -4 4 -2 7 5 7 7 0 9 5 6 11 -5 6 -12 4 -22 -8 -8 -10
-12 -13 -9 -6 4 6 1 15 -5 18 -7 5 -10 0 -7 -11z"/>
<path d="M627 3063 c3 -7 9 -13 13 -13 4 0 10 6 13 13 3 7 -3 13 -13 13 -10 0
-16 -6 -13 -13z"/>
<path d="M669 3063 c-1 -10 -1 -35 -2 -55 0 -20 -5 -34 -10 -31 -5 3 -7 0 -5
-8 3 -8 11 -13 17 -11 7 1 9 -2 6 -9 -10 -16 -13 -119 -3 -125 5 -3 5 -11 1
-17 -10 -16 -10 -97 -1 -103 5 -3 5 -11 1 -17 -10 -16 -10 -97 -1 -103 5 -3 5
-11 1 -17 -10 -16 -11 -59 -1 -78 4 -9 4 -19 1 -23 -11 -11 -12 -39 -3 -56 5
-10 6 -20 3 -24 -11 -11 -12 -39 -3 -56 5 -10 6 -20 3 -24 -11 -11 -12 -39 -3
-56 5 -10 6 -20 3 -24 -11 -11 -12 -39 -3 -56 5 -10 6 -20 3 -24 -11 -11 -12
-39 -3 -56 5 -10 6 -20 3 -24 -11 -11 -12 -39 -3 -56 5 -10 6 -20 3 -24 -11
-11 -12 -39 -2 -57 5 -11 5 -20 0 -24 -5 -3 -8 -17 -5 -30 5 -26 -9 -34 -22
-13 -5 7 -3 8 7 3 11 -7 12 -6 3 6 -6 8 -10 23 -8 34 1 11 -2 23 -9 27 -8 5
-8 8 -1 8 6 0 11 16 11 35 0 19 -5 35 -11 35 -8 0 -8 2 0 8 6 4 10 21 10 37 0
17 -4 33 -10 37 -8 6 -8 8 0 8 6 0 11 16 11 35 0 19 -5 35 -11 35 -8 0 -8 2 0
8 6 4 10 21 10 37 0 17 -4 33 -10 37 -8 6 -8 8 0 8 14 0 14 70 0 70 -8 0 -8 2
0 8 6 4 10 21 10 37 0 17 -4 33 -10 37 -8 6 -8 8 0 8 6 0 11 16 11 35 0 19 -5
35 -11 35 -6 0 -5 4 2 9 8 4 13 11 13 15 -1 3 -1 7 0 9 5 14 4 45 -1 42 -3 -2
-5 15 -4 38 1 23 2 42 4 42 1 0 3 10 4 22 1 12 0 20 -4 18 -3 -2 -5 15 -4 38
1 23 2 42 4 42 1 0 3 10 4 22 1 12 0 20 -4 18 -3 -2 -5 15 -4 38 1 23 2 42 4
42 1 0 3 14 4 32 1 18 -1 30 -4 28 -9 -6 -7 46 2 60 9 14 -7 39 -20 31 -10 -6
-9 -56 2 -74 3 -6 2 -13 -3 -16 -10 -6 -8 -86 2 -103 4 -7 3 -14 -2 -17 -10
-6 -8 -86 2 -103 4 -7 3 -14 -2 -17 -7 -5 -8 -72 -1 -101 1 -5 1 -12 0 -15 -6
-13 -4 -813 2 -823 5 -9 11 -8 20 2 11 12 10 12 -2 6 -12 -7 -13 -6 -4 6 6 8
10 24 8 37 -2 12 0 22 5 22 6 0 9 -30 7 -66 -1 -36 2 -67 6 -70 5 -3 5 -11 1
-17 -10 -16 -10 -97 -1 -103 5 -3 5 -11 1 -17 -10 -16 -10 -98 0 -104 4 -2 4
-10 0 -16 -10 -15 -10 -87 0 -104 4 -6 4 -14 -1 -17 -5 -3 -7 -30 -6 -60 1
-31 -1 -56 -6 -56 -4 0 -7 12 -6 27 1 19 -4 28 -14 28 -17 0 -23 -67 -8 -97 4
-9 4 -19 -1 -22 -5 -4 -8 -14 -7 -24 3 -16 54 -17 879 -19 634 -2 878 1 883 9
4 7 3 8 -4 4 -7 -4 -12 -2 -12 5 0 8 -5 7 -17 -2 -11 -10 -14 -10 -9 -1 9 16
-6 16 -24 0 -12 -11 -12 -10 -2 3 6 9 8 19 4 24 -4 4 3 2 16 -4 12 -6 22 -8
22 -3 0 4 9 8 19 8 11 0 18 -3 15 -7 -2 -4 3 -9 11 -12 8 -4 12 -1 9 6 -3 9
13 13 53 15 87 4 91 5 86 20 -4 9 -9 10 -16 3 -15 -15 -24 -14 -24 2 0 7 7 14
16 14 29 2 46 8 53 18 5 6 8 5 8 -2 0 -7 5 -13 11 -13 5 0 9 10 7 23 -2 18 2
22 23 22 23 -1 26 3 22 26 -2 18 1 29 12 33 11 4 14 2 9 -7 -5 -8 -2 -8 9 2 9
7 17 23 17 35 3 108 4 116 17 116 7 0 13 5 13 11 0 6 -7 8 -16 5 -13 -5 -14
-4 -6 7 7 8 9 17 5 20 -3 4 -3 7 0 7 3 0 12 -10 18 -22 10 -18 8 -24 -7 -35
-13 -10 -14 -13 -3 -13 9 0 10 -3 3 -8 -8 -5 -7 -11 4 -22 14 -13 15 -12 9 2
-3 9 -1 19 6 22 9 3 8 5 -1 5 -8 1 -10 6 -5 14 10 16 10 67 0 67 -5 0 -5 6 -1
12 11 17 12 48 3 48 -5 0 -4 12 1 26 13 33 13 37 -2 28 -9 -5 -9 -2 1 9 8 11
9 17 2 17 -7 0 -8 8 -1 26 13 33 13 37 -2 28 -7 -5 -8 -3 -3 6 4 7 9 29 11 48
2 25 0 32 -7 22 -5 -8 -9 -10 -9 -4 0 6 3 14 7 18 10 10 10 96 0 96 -5 0 -5 4
-2 10 3 6 -1 7 -10 3 -9 -3 -12 -9 -7 -12 14 -9 9 -54 -5 -59 -7 -2 -13 1 -13
8 0 6 5 8 10 5 11 -7 14 8 3 19 -4 3 -8 23 -10 44 -4 51 -11 65 -28 58 -8 -3
-14 -2 -14 2 1 4 0 9 -1 12 -1 3 -4 18 -6 35 -7 38 -4 36 -53 38 -46 2 -53 12
-16 21 16 4 23 11 19 18 -6 9 -9 9 -12 0 -2 -7 -8 -12 -13 -12 -6 0 -7 5 -4
10 4 6 3 10 -2 9 -24 -4 -93 2 -91 9 5 25 -16 39 -65 41 -28 1 -55 8 -59 14
-6 9 -8 9 -8 1 0 -7 -10 -11 -23 -10 -14 0 -23 7 -23 18 0 13 3 14 13 6 10 -8
12 -7 8 3 -4 11 7 14 50 14 30 0 55 4 55 8 0 5 8 6 18 3 12 -4 19 -1 19 8 0 9
-5 12 -10 9 -6 -3 -7 -1 -4 4 4 6 16 13 28 16 16 4 19 2 15 -10 -6 -14 -4 -14
10 -2 10 8 25 15 36 15 39 3 41 4 23 17 -14 11 -15 16 -5 22 8 5 15 4 18 -3 6
-18 32 12 32 36 0 15 5 19 20 15 16 -4 20 0 21 23 3 60 4 69 11 80 4 6 4 14 1
18 -10 10 -11 66 -1 60 4 -3 8 0 8 7 0 7 3 10 6 7 3 -4 1 -16 -6 -27 -7 -14
-7 -21 0 -21 5 0 13 0 17 0 4 0 8 13 8 29 1 25 -2 28 -23 25 -20 -4 -22 -2
-12 16 6 11 16 20 23 20 7 0 6 -4 -3 -10 -13 -8 -12 -10 3 -10 11 0 17 5 14
13 -2 6 -13 11 -24 10 -12 -1 -19 5 -20 18 -1 12 3 17 9 13 7 -5 8 -2 2 7 -7
12 -10 39 -13 130 -1 16 -7 26 -16 26 -9 0 -14 -6 -11 -13 3 -8 2 -15 -2 -18
-8 -4 -14 37 -16 95 0 19 -5 25 -17 22 -18 -5 -44 29 -32 41 3 3 -6 6 -20 6
-15 0 -27 5 -27 10 0 6 -5 10 -11 10 -5 0 -7 -4 -4 -10 3 -6 -1 -7 -10 -3 -13
5 -14 7 -3 14 11 8 5 13 -13 11 -4 -1 -5 9 -2 21 3 12 1 18 -4 12 -13 -16 -44
-18 -42 -3 3 27 -1 38 -16 38 -8 0 -15 -5 -15 -11 0 -6 -6 -5 -14 3 -8 8 -32
14 -59 13 -39 -1 -45 1 -44 17 1 15 4 16 12 6 14 -18 32 -20 32 -3 0 7 -7 11
-15 7 -9 -3 -13 -1 -10 4 4 5 -24 10 -65 10 -206 4 -287 9 -284 18 2 5 11 10
20 12 9 1 15 -1 12 -5 -2 -4 2 -8 9 -8 8 0 12 6 9 13 -4 10 -143 13 -664 14
-626 1 -659 0 -660 -17z m58 -8 c0 -8 -4 -12 -9 -9 -5 3 -6 10 -3 15 9 13 12
11 12 -6z m1143 11 c0 -2 -8 -10 -17 -17 -16 -13 -17 -12 -4 4 13 16 21 21 21
13z m60 -13 c0 -7 -4 -13 -10 -13 -5 0 -10 6 -10 13 0 9 -2 9 -9 -1 -7 -11 -9
-11 -14 0 -3 10 3 14 19 14 13 0 24 -6 24 -13z m-1285 -32 c3 -5 2 -12 -3 -15
-5 -3 -9 1 -9 9 0 17 3 19 12 6z m1756 -68 c-12 -20 -14 -14 -5 12 4 9 9 14
11 11 3 -2 0 -13 -6 -23z m-1756 -44 c1 -11 -1 -22 -5 -24 -3 -2 -6 9 -6 25 0
33 9 32 11 -1z m-2 -124 c4 -8 3 -16 -1 -19 -4 -3 -9 4 -9 15 -2 23 3 25 10 4z
m973 -52 c1 -7 2 -16 3 -21 0 -4 29 -7 64 -6 34 1 67 -3 74 -8 7 -5 14 -5 18
2 10 16 24 2 20 -20 -2 -11 1 -20 6 -20 6 0 8 -13 6 -29 -4 -22 -2 -28 8 -24
8 2 11 12 7 21 -5 15 -4 15 9 2 17 -19 23 -100 6 -100 -8 0 -9 -3 -1 -8 12 -8
13 -132 2 -132 -5 0 -9 5 -9 10 -1 6 -2 16 -3 23 -1 6 2 18 7 25 6 8 5 12 -4
12 -11 0 -11 2 1 10 8 5 10 10 4 10 -6 0 -18 -8 -25 -17 -10 -11 -10 -14 -1
-9 6 4 12 3 12 -3 0 -5 -3 -12 -7 -14 -5 -3 -8 -28 -7 -56 0 -50 0 -51 -30
-52 -17 -1 -34 -1 -38 0 -9 1 -12 -15 -8 -39 1 -8 -1 -12 -5 -8 -3 3 -8 14 -9
25 -2 13 -11 18 -32 18 -16 0 -30 -5 -31 -10 -3 -10 1 -12 39 -14 12 0 18 -4
14 -8 -11 -11 -36 -12 -36 -1 0 6 -6 5 -15 -2 -12 -10 -18 -10 -30 0 -9 8 -15
8 -15 2 0 -6 -8 -10 -18 -9 -19 1 -24 21 -25 95 0 23 -5 42 -9 42 -5 0 -6 6
-1 13 13 21 13 47 0 47 -8 0 -7 4 3 10 11 7 11 10 2 10 -8 0 -10 5 -5 12 4 7
8 30 9 52 1 25 -1 34 -7 25 -7 -11 -9 -10 -9 4 0 9 6 17 13 18 10 0 10 2 0 6
-7 2 -13 9 -13 14 0 6 3 8 8 5 4 -2 8 9 8 24 1 22 -3 28 -17 27 -9 -1 -15 -5
-13 -9 3 -5 10 -6 15 -3 5 4 9 4 9 1 0 -3 -8 -10 -18 -15 -15 -8 -18 -6 -17
11 1 12 8 24 16 26 8 2 21 6 29 9 8 4 22 5 30 4 21 -4 6 10 -17 14 -10 2 -19
4 -21 4 -2 1 -1 5 2 10 8 13 51 8 52 -6z m-973 -68 c4 -8 3 -16 -1 -19 -4 -3
-9 4 -9 15 -2 23 3 25 10 4z m907 -20 c-6 -8 -8 -20 -4 -27 5 -10 4 -10 -6 -1
-11 10 -11 15 0 28 7 8 15 15 17 15 3 0 0 -7 -7 -15z m-15 -55 c-3 -4 1 -10 9
-13 13 -5 16 -42 5 -62 -5 -9 -5 -31 1 -37 7 -10 7 -39 -1 -44 -5 -3 -6 -10
-3 -16 3 -5 7 -31 9 -56 1 -26 0 -41 -2 -34 -4 10 -8 10 -21 0 -14 -11 -14
-11 -5 7 8 13 8 25 1 38 -7 13 -7 17 0 13 6 -3 13 -2 17 4 3 5 -2 10 -12 11
-10 0 -13 2 -8 5 10 4 11 85 1 110 -3 9 0 11 12 7 15 -6 15 -5 3 11 -16 19
-23 78 -9 70 5 -3 6 -9 3 -14z m-892 -45 c4 -8 3 -16 -1 -19 -4 -3 -9 4 -9 15
-2 23 3 25 10 4z m1832 -434 c3 -5 1 -12 -5 -16 -5 -3 -10 1 -10 9 0 18 6 21
15 7z m-845 -126 c6 -3 10 -1 10 6 0 7 2 10 5 7 3 -3 3 -13 -1 -22 -5 -12 -10
-14 -19 -6 -10 8 -15 7 -21 -2 -4 -7 -4 -10 1 -6 4 4 14 3 21 -3 9 -8 17 -3
28 18 l16 28 -4 -26 c-4 -23 -1 -26 27 -26 18 0 50 -1 72 -1 l41 -2 -1 -48
c-1 -38 2 -48 15 -48 9 0 17 6 17 13 0 7 -5 9 -10 6 -6 -4 -7 -1 -2 7 6 9 4
11 -5 5 -9 -5 -11 -4 -6 3 4 7 13 12 20 12 14 0 16 -77 2 -99 -6 -10 -6 -12 2
-7 7 4 12 1 12 -9 0 -9 -4 -14 -9 -10 -5 3 -13 1 -16 -5 -4 -6 -1 -9 7 -8 8 2
14 -8 16 -26 3 -21 0 -26 -10 -20 -10 6 -11 5 -2 -7 16 -20 15 -79 0 -95 -8
-7 -16 -11 -18 -9 -3 3 -5 -2 -5 -10 0 -19 7 -19 21 1 10 13 12 13 13 -5 2
-19 -12 -27 -40 -22 -4 1 -3 -8 3 -19 8 -14 8 -20 0 -20 -6 0 -10 -10 -8 -22
2 -18 -3 -24 -22 -27 -14 -1 -28 -8 -32 -15 -5 -7 -8 -7 -8 0 0 6 -7 11 -15
11 -13 0 -12 -4 2 -21 16 -18 14 -17 -14 3 -18 12 -33 20 -33 17 0 -3 0 -9 0
-13 0 -5 5 -8 10 -8 6 0 10 -4 10 -10 0 -10 -91 -16 -122 -8 -9 2 -19 10 -22
18 -4 12 -1 12 20 -1 13 -9 27 -14 31 -10 3 3 2 6 -4 6 -17 0 -58 40 -42 41
10 0 11 2 1 6 -6 2 -9 10 -5 16 4 7 8 29 9 49 2 38 -8 49 -22 26 -4 -7 -3 -8
4 -4 7 4 12 5 12 2 0 -3 -8 -10 -18 -15 -16 -8 -18 -6 -17 12 2 12 8 21 14 20
6 -2 11 2 11 8 0 5 3 8 8 6 4 -3 7 15 8 39 0 24 -4 44 -8 44 -5 0 -6 6 -1 13
13 21 13 47 0 47 -8 0 -7 4 3 10 11 7 11 10 2 10 -8 0 -10 5 -5 13 12 19 14
47 4 47 -6 0 -13 -5 -17 -12 -4 -7 -3 -8 4 -4 7 4 12 5 12 2 0 -3 -8 -10 -18
-15 -16 -8 -18 -6 -17 12 2 12 8 21 14 20 6 -2 11 2 11 8 0 5 3 8 8 6 4 -3 8
10 8 29 1 19 -3 34 -9 34 -7 0 -7 4 1 12 15 15 15 28 1 28 -5 0 -7 -5 -3 -12
5 -7 3 -8 -6 -3 -9 6 -11 4 -5 -6 7 -12 6 -12 -6 0 -12 11 -12 14 0 18 7 3 20
13 29 23 14 17 39 19 62 5z m-80 -1 c0 -8 -19 -13 -24 -6 -3 5 1 9 9 9 8 0 15
-2 15 -3z m144 -9 c-4 -8 -10 -12 -15 -9 -11 6 -2 24 11 24 5 0 7 -7 4 -15z
m61 -4 c-10 -9 -54 -8 -48 1 2 5 14 6 25 2 15 -4 18 -3 13 6 -6 9 -4 11 4 6 7
-5 9 -11 6 -15z m-200 -78 c-2 -10 -4 -22 -5 -28 -1 -14 -24 27 -25 47 -1 13
2 15 16 8 9 -6 16 -18 14 -27z m-910 -74 c1 -16 -1 -32 -5 -34 -3 -2 -6 14 -6
36 0 45 9 44 11 -2z m908 -21 c-8 -11 -10 -33 -3 -40 7 -10 7 -39 -1 -44 -5
-3 -5 -13 -1 -22 8 -17 8 -59 0 -67 -3 -3 -10 6 -16 21 -7 14 -8 23 -3 19 5
-3 12 -1 16 5 3 5 -2 10 -12 11 -10 0 -13 2 -8 5 6 2 9 25 8 51 -1 26 3 53 9
60 13 17 23 17 11 1z m1 -255 c-1 -16 -3 -28 -4 -28 -1 0 -3 -8 -5 -18 -5 -27
-15 -34 -15 -11 0 11 6 26 13 33 10 11 9 13 -6 8 -18 -7 -17 2 6 31 13 17 14
16 11 -15z m289 2 c4 -8 3 -16 -1 -19 -4 -3 -9 4 -9 15 -2 23 3 25 10 4z
m-293 -106 c0 -6 -4 -7 -10 -4 -5 3 -10 11 -10 16 0 6 5 7 10 4 6 -3 10 -11
10 -16z m-903 -199 c-1 -11 -5 -20 -9 -20 -3 0 -6 9 -5 20 1 11 5 20 9 20 3 0
6 -9 5 -20z m10 -38 c6 -4 11 -26 10 -48 -1 -32 -5 -40 -20 -42 -19 -1 -19 -1
-1 14 18 14 18 14 -1 8 -15 -4 -16 -3 -6 4 7 5 11 14 7 20 -3 6 -1 14 5 18 9
5 7 11 -6 21 -20 14 -9 18 12 5z m1633 -66 c0 -2 -7 -7 -16 -10 -8 -3 -12 -2
-9 4 6 10 25 14 25 6z"/>
<path d="M1771 2686 c-8 -10 -9 -16 -1 -21 5 -3 10 -5 11 -3 4 18 7 38 4 38
-1 0 -8 -6 -14 -14z"/>
<path d="M1814 2588 l-19 -23 23 19 c21 18 27 26 19 26 -2 0 -12 -10 -23 -22z"/>
<path d="M1819 2563 c-13 -16 -12 -17 4 -4 9 7 17 15 17 17 0 8 -8 3 -21 -13z"/>
<path d="M1813 2513 c4 -3 1 -13 -6 -22 -10 -14 -10 -14 4 -4 9 7 20 9 25 5 4
-4 2 1 -5 11 -7 9 -16 17 -19 17 -3 0 -2 -3 1 -7z"/>
<path d="M1585 2312 c2 -9 4 -19 4 -21 1 -2 7 2 15 8 10 8 16 9 21 1 3 -5 11
-10 16 -10 17 0 -19 31 -40 35 -13 2 -18 -1 -16 -13z"/>
<path d="M1535 2561 c-3 -5 -2 -12 3 -15 5 -3 9 1 9 9 0 17 -3 19 -12 6z"/>
<path d="M1810 1831 c0 -5 7 -11 14 -14 10 -4 13 -1 9 9 -6 15 -23 19 -23 5z"/>
<path d="M1815 1639 c-4 -6 -5 -12 -2 -15 2 -3 7 2 10 11 7 17 1 20 -8 4z"/>
<path d="M1615 1470 c-3 -5 -1 -10 5 -10 6 0 8 -5 4 -12 -4 -7 -3 -8 4 -4 6 4
9 13 5 21 -6 18 -10 19 -18 5z"/>
<path d="M1647 1473 c-7 -12 4 -27 22 -31 12 -3 12 -1 1 15 -8 10 -15 19 -16
21 -1 2 -4 -1 -7 -5z"/>
<path d="M1535 1901 c-3 -5 -2 -12 3 -15 5 -3 9 1 9 9 0 17 -3 19 -12 6z"/>
<path d="M2003 3067 c5 -16 44 -18 44 -3 0 8 -11 14 -24 14 -13 0 -22 -5 -20
-11z"/>
<path d="M4257 3066 c-4 -9 12 -12 56 -11 38 0 62 5 65 13 2 6 -3 12 -12 12
-9 0 -16 -6 -16 -12 0 -10 -2 -10 -8 -1 -9 15 -79 14 -85 -1z"/>
<path d="M4406 3072 c-3 -5 1 -9 9 -9 8 0 12 4 9 9 -3 4 -7 8 -9 8 -2 0 -6 -4
-9 -8z"/>
<path d="M2485 2930 c3 -5 10 -10 16 -10 5 0 9 5 9 10 0 6 -7 10 -16 10 -8 0
-12 -4 -9 -10z"/>
<path d="M4826 2924 c-8 -22 -4 -25 11 -9 7 8 9 16 4 19 -5 3 -12 -1 -15 -10z"/>
<path d="M2680 2630 c-9 -6 -10 -10 -3 -10 6 0 15 5 18 10 8 12 4 12 -15 0z"/>
<path d="M4790 2216 c0 -2 9 -6 20 -9 11 -3 18 -1 14 4 -5 9 -34 13 -34 5z"/>
<path d="M2492 2121 c7 -9 13 -18 15 -20 1 -2 1 5 0 16 0 11 -7 20 -14 20 -10
0 -10 -4 -1 -16z"/>
<path d="M2671 1990 c-11 -6 -9 -10 8 -19 17 -10 21 -9 21 3 0 20 -13 27 -29
16z"/>
<path d="M5020 1980 c-8 -5 -12 -12 -9 -15 4 -3 12 1 19 10 14 17 11 19 -10 5z"/>
<path d="M5053 1845 c0 -8 4 -12 9 -9 4 3 8 1 8 -5 0 -5 -5 -13 -10 -16 -6 -4
-7 -11 -3 -18 11 -18 11 -71 -1 -79 -8 -5 -7 -8 2 -8 6 0 15 0 19 0 4 0 8 11
9 25 0 14 -3 25 -8 25 -5 0 -6 6 -1 13 10 15 11 77 1 71 -5 -3 -8 0 -8 5 0 6
-4 11 -8 11 -5 0 -9 -7 -9 -15z m24 -47 c2 -17 0 -19 -7 -8 -5 8 -6 18 -4 22
8 12 10 10 11 -14z"/>
<path d="M639 1750 c-20 -11 -19 -97 0 -110 10 -5 9 -9 -2 -13 -18 -7 -16 -95
2 -107 10 -5 9 -9 -2 -13 -18 -7 -16 -95 2 -107 10 -5 9 -8 -2 -13 -10 -4 -13
-19 -12 -49 4 -57 3 -55 19 -61 11 -4 13 1 10 18 -2 13 0 27 6 30 6 4 7 11 3
18 -10 17 -12 97 -2 103 5 3 6 10 2 17 -10 17 -12 97 -2 103 5 3 6 11 2 17
-11 17 -11 90 -1 104 5 7 5 13 0 17 -5 3 -8 17 -7 31 2 14 3 25 2 25 -1 0 -9
-5 -18 -10z m8 -25 c-4 -8 -2 -17 4 -20 12 -8 2 -25 -14 -25 -7 0 -6 4 3 10 9
6 10 10 3 10 -6 0 -11 9 -10 20 1 11 5 20 10 20 5 0 7 -7 4 -15z m0 -120 c-4
-8 -2 -17 4 -20 12 -8 2 -25 -14 -25 -7 0 -6 4 3 10 9 6 10 10 3 10 -6 0 -11
9 -10 20 1 11 5 20 10 20 5 0 7 -7 4 -15z m0 -120 c-4 -8 -2 -17 4 -20 12 -8
2 -25 -14 -25 -7 0 -6 4 3 10 9 6 10 10 3 10 -6 0 -11 9 -10 20 1 11 5 20 10
20 5 0 7 -7 4 -15z m0 -120 c-4 -8 -2 -17 4 -20 12 -8 2 -25 -14 -25 -7 0 -6
4 3 10 9 6 10 10 3 10 -6 0 -11 9 -10 20 1 11 5 20 10 20 5 0 7 -7 4 -15z"/>
<path d="M4885 1159 c-4 -6 -5 -12 -2 -15 2 -3 7 2 10 11 7 17 1 20 -8 4z"/>
<path d="M4657 1133 c-3 -5 -3 -13 1 -18 9 -12 54 -16 46 -4 -3 5 0 9 7 9 10
0 10 3 2 11 -14 14 -36 2 -27 -14 3 -7 -1 -4 -9 6 -8 10 -17 14 -20 10z"/>
<path d="M4735 1110 c3 -5 8 -10 11 -10 2 0 4 5 4 10 0 6 -5 10 -11 10 -5 0
-7 -4 -4 -10z"/>
</g>
</svg>
